<svg width="126" height="31" viewBox="0 0 126 31" fill="none" xmlns="http://www.w3.org/2000/svg">
<path d="M0.00100008 14.5977C0.00100008 12.8586 0.354889 11.3419 1.06267 10.0477C1.77044 8.73322 2.75122 7.72211 4.005 7.01433C5.25878 6.28633 6.69456 5.92233 8.31233 5.92233C10.3952 5.92233 12.1141 6.44811 13.469 7.49966C14.8441 8.531 15.7642 9.987 16.2293 11.8677H11.649C11.4063 11.1397 10.9918 10.5734 10.4053 10.169C9.83911 9.74433 9.13133 9.532 8.282 9.532C7.06867 9.532 6.10811 9.97689 5.40033 10.8667C4.69256 11.7362 4.33867 12.9799 4.33867 14.5977C4.33867 16.1952 4.69256 17.4389 5.40033 18.3287C6.10811 19.1982 7.06867 19.633 8.282 19.633C10.0009 19.633 11.1232 18.8646 11.649 17.3277H16.2293C15.7642 19.1477 14.8441 20.5936 13.469 21.6653C12.0939 22.7371 10.375 23.273 8.31233 23.273C6.69456 23.273 5.25878 22.9191 4.005 22.2113C2.75122 21.4833 1.77044 20.4722 1.06267 19.178C0.354889 17.8636 0.00100008 16.3368 0.00100008 14.5977ZM28.1977 5.95266C29.4717 5.95266 30.6042 6.23578 31.5951 6.802C32.586 7.348 33.3544 8.167 33.9004 9.259C34.4666 10.3308 34.7497 11.625 34.7497 13.1417V23H30.5031V13.718C30.5031 12.3833 30.1694 11.3621 29.5021 10.6543C28.8347 9.92633 27.9247 9.56233 26.7721 9.56233C25.5992 9.56233 24.669 9.92633 23.9814 10.6543C23.3141 11.3621 22.9804 12.3833 22.9804 13.718V23H18.7337V0.553331H22.9804V8.28833C23.5264 7.56033 24.2544 6.99411 25.1644 6.58967C26.0744 6.165 27.0855 5.95266 28.1977 5.95266ZM37.0894 14.537C37.0894 12.8383 37.4231 11.3318 38.0904 10.0173C38.778 8.70289 39.6981 7.69178 40.8508 6.984C42.0236 6.27622 43.328 5.92233 44.7638 5.92233C46.0175 5.92233 47.1095 6.17511 48.0398 6.68066C48.9902 7.18622 49.7485 7.82322 50.3148 8.59166V6.19533H54.5918V23H50.3148V20.543C49.7688 21.3317 49.0104 21.9889 48.0398 22.5147C47.0893 23.0202 45.9872 23.273 44.7334 23.273C43.3179 23.273 42.0236 22.909 40.8508 22.181C39.6981 21.453 38.778 20.4318 38.0904 19.1173C37.4231 17.7827 37.0894 16.2559 37.0894 14.537ZM50.3148 14.5977C50.3148 13.5663 50.1125 12.6867 49.7081 11.9587C49.3036 11.2104 48.7576 10.6442 48.0701 10.26C47.3825 9.85555 46.6444 9.65333 45.8558 9.65333C45.0671 9.65333 44.3391 9.84544 43.6718 10.2297C43.0044 10.6139 42.4584 11.1801 42.0338 11.9283C41.6293 12.6563 41.4271 13.5259 41.4271 14.537C41.4271 15.5481 41.6293 16.4379 42.0338 17.2063C42.4584 17.9546 43.0044 18.5309 43.6718 18.9353C44.3593 19.3398 45.0873 19.542 45.8558 19.542C46.6444 19.542 47.3825 19.3499 48.0701 18.9657C48.7576 18.5612 49.3036 17.995 49.7081 17.267C50.1125 16.5188 50.3148 15.629 50.3148 14.5977ZM63.077 9.68367V17.813C63.077 18.3792 63.2085 18.7938 63.4714 19.0567C63.7545 19.2993 64.2196 19.4207 64.8667 19.4207H66.8384V23H64.169C60.5897 23 58.8 21.2609 58.8 17.7827V9.68367H56.798V6.19533H58.8V2.03966H63.077V6.19533H66.8384V9.68367H63.077Z" fill="#9555A5"/>
<path d="M68.8311 14.7493C68.8311 13.0507 69.1648 11.5643 69.8321 10.2903C70.5197 9.01633 71.46 8.03555 72.6531 7.348C73.8665 6.66044 75.2416 6.31666 76.7785 6.31666C78.5176 6.31666 79.9938 6.74133 81.2071 7.59066C82.4205 8.44 83.2698 9.52189 83.7551 10.8363V6.529H85.1201V23H83.7551V18.6623C83.2698 19.997 82.4104 21.0991 81.1768 21.9687C79.9635 22.818 78.4974 23.2427 76.7785 23.2427C75.2416 23.2427 73.8665 22.8989 72.6531 22.2113C71.46 21.5036 70.5197 20.5127 69.8321 19.2387C69.1648 17.9444 68.8311 16.448 68.8311 14.7493ZM83.7551 14.7493C83.7551 13.3136 83.4518 12.0497 82.8451 10.9577C82.2587 9.84544 81.4498 8.99611 80.4185 8.40966C79.3871 7.803 78.2345 7.49966 76.9605 7.49966C75.6258 7.49966 74.4529 7.79289 73.4418 8.37933C72.4307 8.94555 71.642 9.77466 71.0758 10.8667C70.5096 11.9587 70.2265 13.2529 70.2265 14.7493C70.2265 16.2458 70.5096 17.54 71.0758 18.632C71.642 19.724 72.4307 20.5632 73.4418 21.1497C74.4731 21.7361 75.646 22.0293 76.9605 22.0293C78.2345 22.0293 79.3871 21.7361 80.4185 21.1497C81.47 20.543 82.289 19.6937 82.8755 18.6017C83.4619 17.4894 83.7551 16.2053 83.7551 14.7493ZM90.8486 10.8667C91.3137 9.532 92.153 8.44 93.3663 7.59066C94.5998 6.74133 96.0862 6.31666 97.8253 6.31666C99.3622 6.31666 100.727 6.66044 101.92 7.348C103.134 8.03555 104.074 9.01633 104.741 10.2903C105.429 11.5643 105.773 13.0507 105.773 14.7493C105.773 16.448 105.429 17.9444 104.741 19.2387C104.074 20.5127 103.134 21.5036 101.92 22.2113C100.727 22.8989 99.3622 23.2427 97.8253 23.2427C96.1064 23.2427 94.6302 22.818 93.3966 21.9687C92.1833 21.0991 91.334 20.0071 90.8486 18.6927V30.7653H89.4836V6.529H90.8486V10.8667ZM104.377 14.7493C104.377 13.2529 104.094 11.9587 103.528 10.8667C102.962 9.77466 102.163 8.94555 101.132 8.37933C100.121 7.79289 98.9476 7.49966 97.613 7.49966C96.339 7.49966 95.1863 7.803 94.155 8.40966C93.1236 8.99611 92.3147 9.84544 91.7283 10.9577C91.1418 12.0497 90.8486 13.3136 90.8486 14.7493C90.8486 16.2053 91.1418 17.4894 91.7283 18.6017C92.3147 19.6937 93.1236 20.543 94.155 21.1497C95.1863 21.7361 96.339 22.0293 97.613 22.0293C98.9476 22.0293 100.121 21.7361 101.132 21.1497C102.163 20.5632 102.962 19.724 103.528 18.632C104.094 17.54 104.377 16.2458 104.377 14.7493ZM110.652 10.8667C111.117 9.532 111.956 8.44 113.169 7.59066C114.403 6.74133 115.889 6.31666 117.628 6.31666C119.165 6.31666 120.53 6.66044 121.723 7.348C122.937 8.03555 123.877 9.01633 124.544 10.2903C125.232 11.5643 125.576 13.0507 125.576 14.7493C125.576 16.448 125.232 17.9444 124.544 19.2387C123.877 20.5127 122.937 21.5036 121.723 22.2113C120.53 22.8989 119.165 23.2427 117.628 23.2427C115.91 23.2427 114.433 22.818 113.2 21.9687C111.986 21.0991 111.137 20.0071 110.652 18.6927V30.7653H109.287V6.529H110.652V10.8667ZM124.18 14.7493C124.18 13.2529 123.897 11.9587 123.331 10.8667C122.765 9.77466 121.966 8.94555 120.935 8.37933C119.924 7.79289 118.751 7.49966 117.416 7.49966C116.142 7.49966 114.989 7.803 113.958 8.40966C112.927 8.99611 112.118 9.84544 111.531 10.9577C110.945 12.0497 110.652 13.3136 110.652 14.7493C110.652 16.2053 110.945 17.4894 111.531 18.6017C112.118 19.6937 112.927 20.543 113.958 21.1497C114.989 21.7361 116.142 22.0293 117.416 22.0293C118.751 22.0293 119.924 21.7361 120.935 21.1497C121.966 20.5632 122.765 19.724 123.331 18.632C123.897 17.54 124.18 16.2458 124.18 14.7493Z" fill="#2D3A4B"/>
</svg>
