<svg width="32" height="32" viewBox="0 0 32 32" fill="none" xmlns="http://www.w3.org/2000/svg">
<g clip-path="url(#clip0)">
<rect width="32" height="32" rx="2.5" fill="white"/>
<rect width="32" height="32" fill="#F7EFE7"/>
<path d="M6.6385 15.6935C6.6385 13.7155 7.041 11.9905 7.846 10.5185C8.651 9.0235 9.7665 7.8735 11.1925 7.0685C12.6185 6.2405 14.2515 5.8265 16.0915 5.8265C18.4605 5.8265 20.4155 6.4245 21.9565 7.6205C23.5205 8.7935 24.567 10.4495 25.096 12.5885H19.8865C19.6105 11.7605 19.139 11.1165 18.472 10.6565C17.828 10.1735 17.023 9.932 16.057 9.932C14.677 9.932 13.5845 10.438 12.7795 11.45C11.9745 12.439 11.572 13.8535 11.572 15.6935C11.572 17.5105 11.9745 18.925 12.7795 19.937C13.5845 20.926 14.677 21.4205 16.057 21.4205C18.012 21.4205 19.2885 20.5465 19.8865 18.7985H25.096C24.567 20.8685 23.5205 22.513 21.9565 23.732C20.3925 24.951 18.4375 25.5605 16.0915 25.5605C14.2515 25.5605 12.6185 25.158 11.1925 24.353C9.7665 23.525 8.651 22.375 7.846 20.903C7.041 19.408 6.6385 17.6715 6.6385 15.6935Z" fill="#9555A5"/>
</g>
<defs>
<clipPath id="clip0">
<rect width="32" height="32" rx="2.5" fill="white"/>
</clipPath>
</defs>
</svg>
