<svg width="171" height="37" viewBox="0 0 171 37" fill="none" xmlns="http://www.w3.org/2000/svg">
<path d="M16.1466 6.40769C16.7423 4.55889 19.3581 4.55889 19.9538 6.40769L21.6472 11.6628C21.9135 12.4892 22.6825 13.0494 23.5508 13.0494L29.0657 13.0494C30.9991 13.0494 31.8074 15.5202 30.2477 16.6628L25.7575 19.9524C25.0623 20.4617 24.7715 21.359 25.0358 22.1792L26.7442 27.4809C27.3388 29.3264 25.2227 30.8536 23.6586 29.7076L19.2322 26.4648C18.5285 25.9493 17.5719 25.9493 16.8682 26.4648L12.4419 29.7076C10.8777 30.8536 8.76158 29.3264 9.35627 27.4809L11.0646 22.1792C11.3289 21.359 11.0381 20.4617 10.343 19.9524L5.85273 16.6628C4.29309 15.5202 5.10129 13.0494 7.0347 13.0494L12.5496 13.0494C13.4179 13.0494 14.187 12.4892 14.4533 11.6628L16.1466 6.40769Z" fill="#FBA229"/>
<path d="M84.3994 6.40769C84.9951 4.55889 87.6109 4.55889 88.2066 6.40769L89.9 11.6628C90.1663 12.4892 90.9353 13.0494 91.8036 13.0494L97.3185 13.0494C99.252 13.0494 100.06 15.5202 98.5005 16.6628L94.0103 19.9524C93.3151 20.4617 93.0243 21.359 93.2886 22.1792L94.997 27.4809C95.5917 29.3264 93.4755 30.8536 91.9114 29.7076L87.485 26.4648C86.7813 25.9493 85.8247 25.9493 85.121 26.4648L80.6947 29.7076C79.1305 30.8536 77.0144 29.3264 77.6091 27.4809L79.3174 22.1792C79.5817 21.359 79.2909 20.4617 78.5958 19.9524L74.1055 16.6628C72.5459 15.5202 73.3541 13.0494 75.2875 13.0494L80.8025 13.0494C81.6707 13.0494 82.4398 12.4892 82.7061 11.6628L84.3994 6.40769Z" fill="#FBA229"/>
<path d="M48.3771 6.40769C48.9728 4.55889 51.5886 4.55889 52.1843 6.40769L53.8776 11.6628C54.1439 12.4892 54.913 13.0494 55.7813 13.0494L61.2962 13.0494C63.2296 13.0494 64.0378 15.5202 62.4782 16.6628L57.9879 19.9524C57.2928 20.4617 57.002 21.359 57.2663 22.1792L58.9746 27.4809C59.5693 29.3264 57.4532 30.8536 55.889 29.7076L51.4627 26.4648C50.759 25.9493 49.8024 25.9493 49.0987 26.4648L44.6723 29.7076C43.1082 30.8536 40.9921 29.3264 41.5867 27.4809L43.2951 22.1792C43.5594 21.359 43.2686 20.4617 42.5734 19.9524L38.0832 16.6628C36.5236 15.5202 37.3318 13.0494 39.2652 13.0494L44.7801 13.0494C45.6484 13.0494 46.4174 12.4892 46.6837 11.6628L48.3771 6.40769Z" fill="#FBA229"/>
<path d="M116.63 6.40769C117.226 4.55889 119.841 4.55889 120.437 6.40769L122.13 11.6628C122.397 12.4892 123.166 13.0494 124.034 13.0494L129.549 13.0494C131.482 13.0494 132.291 15.5202 130.731 16.6628L126.241 19.9524C125.546 20.4617 125.255 21.359 125.519 22.1792L127.227 27.4809C127.822 29.3264 125.706 30.8536 124.142 29.7076L119.715 26.4648C119.012 25.9493 118.055 25.9493 117.352 26.4648L112.925 29.7076C111.361 30.8536 109.245 29.3264 109.84 27.4809L111.548 22.1792C111.812 21.359 111.521 20.4617 110.826 19.9524L106.336 16.6628C104.776 15.5202 105.585 13.0494 107.518 13.0494L113.033 13.0494C113.901 13.0494 114.67 12.4892 114.937 11.6628L116.63 6.40769Z" fill="#FBA229"/>
<path d="M150.124 6.40769C150.72 4.55889 153.336 4.55889 153.931 6.40769L155.625 11.6628C155.891 12.4892 156.66 13.0494 157.528 13.0494L163.043 13.0494C164.977 13.0494 165.785 15.5202 164.225 16.6628L159.735 19.9524C159.04 20.4617 158.749 21.359 159.013 22.1792L160.722 27.4809C161.317 29.3264 159.2 30.8536 157.636 29.7076L153.21 26.4648C152.506 25.9493 151.55 25.9493 150.846 26.4648L146.42 29.7076C144.855 30.8536 142.739 29.3264 143.334 27.4809L145.042 22.1792C145.307 21.359 145.016 20.4617 144.321 19.9524L139.83 16.6628C138.271 15.5202 139.079 13.0494 141.012 13.0494L146.527 13.0494C147.396 13.0494 148.165 12.4892 148.431 11.6628L150.124 6.40769Z" fill="#FBA229"/>
</svg>
