<svg width="256" height="256" viewBox="0 0 256 256" fill="none" xmlns="http://www.w3.org/2000/svg">
<g clip-path="url(#clip0)">
<rect width="256" height="256" rx="20" fill="white"/>
<rect width="256" height="256" fill="#F7EFE7"/>
<path d="M53.108 126.548C53.108 110.724 56.328 96.924 62.768 85.148C69.208 73.188 78.132 63.988 89.54 57.548C100.948 50.924 114.012 47.612 128.732 47.612C147.684 47.612 163.324 52.396 175.652 61.964C188.164 71.348 196.536 84.596 200.768 101.708H159.092C156.884 95.084 153.112 89.932 147.776 86.252C142.624 82.388 136.184 80.456 128.456 80.456C117.416 80.456 108.676 84.504 102.236 92.6C95.796 100.512 92.576 111.828 92.576 126.548C92.576 141.084 95.796 152.4 102.236 160.496C108.676 168.408 117.416 172.364 128.456 172.364C144.096 172.364 154.308 165.372 159.092 151.388H200.768C196.536 167.948 188.164 181.104 175.652 190.856C163.14 200.608 147.5 205.484 128.732 205.484C114.012 205.484 100.948 202.264 89.54 195.824C78.132 189.2 69.208 180 62.768 168.224C56.328 156.264 53.108 142.372 53.108 126.548Z" fill="#9555A5"/>
</g>
<defs>
<clipPath id="clip0">
<rect width="256" height="256" rx="20" fill="white"/>
</clipPath>
</defs>
</svg>
